<?xml version="1.0" standalone="no"?>
<!DOCTYPE svg PUBLIC "-//W3C//DTD SVG 20010904//EN"
 "http://www.w3.org/TR/2001/REC-SVG-20010904/DTD/svg10.dtd">
<svg version="1.0" xmlns="http://www.w3.org/2000/svg"
 width="1080.000000pt" height="1080.000000pt" viewBox="0 0 1080.000000 1080.000000"
 preserveAspectRatio="xMidYMid meet">
<metadata>
Created by potrace 1.14, written by Peter Selinger 2001-2017
</metadata>
<g transform="translate(0.000000,1080.000000) scale(0.100000,-0.100000)"
fill="#000000" stroke="none">
<path d="M5300 9915 c-1 -5 -2 -13 -1 -18 1 -4 -8 -2 -19 5 -16 10 -24 10 -41
0 -12 -8 -18 -9 -15 -4 3 5 -14 10 -40 10 -32 1 -43 -2 -38 -11 5 -9 4 -9 -6
0 -8 7 -20 9 -29 4 -9 -4 -41 -7 -71 -7 -40 1 -57 -3 -62 -14 -5 -12 -7 -12
-7 3 -1 9 -6 17 -12 17 -5 0 -8 -4 -4 -10 3 -5 -8 -7 -27 -5 -18 2 -38 -1 -45
-7 -9 -7 -13 -7 -13 1 0 7 -5 9 -10 6 -6 -4 -8 -10 -6 -14 3 -4 -1 -8 -9 -8
-8 0 -12 4 -9 9 6 10 -10 11 -20 1 -4 -4 -23 -6 -43 -4 -27 2 -33 0 -27 -11 6
-10 4 -10 -9 1 -9 7 -18 11 -18 7 -1 -3 -3 -10 -4 -16 -1 -5 -3 -14 -4 -19 0
-4 -11 -7 -23 -7 -13 1 -29 -2 -35 -7 -9 -6 -13 -5 -13 3 0 10 -3 10 -15 0
-11 -9 -15 -9 -15 -1 0 8 -5 9 -19 1 -14 -7 -21 -6 -24 3 -3 9 -7 9 -20 -2
-14 -11 -17 -11 -17 0 0 12 -2 12 -9 0 -7 -10 -10 -10 -13 -1 -3 10 -9 10 -27
0 -19 -10 -22 -10 -15 2 6 10 5 11 -8 1 -8 -7 -18 -10 -21 -6 -4 3 -7 -2 -8
-13 0 -10 -3 -13 -6 -6 -6 14 -33 16 -33 2 0 -5 -9 -10 -21 -10 -11 0 -18 -4
-15 -8 3 -5 -1 -9 -9 -9 -8 0 -15 3 -15 7 0 4 -7 7 -15 7 -8 0 -11 -5 -8 -10
4 -6 -3 -8 -15 -5 -12 4 -22 2 -22 -4 0 -6 -7 -7 -16 -4 -8 3 -25 -1 -38 -9
-12 -8 -26 -12 -29 -8 -4 3 -7 0 -7 -8 0 -11 -2 -11 -10 1 -8 12 -10 12 -10 1
0 -8 -7 -11 -20 -8 -11 3 -20 1 -20 -4 0 -4 -7 -5 -17 -2 -12 5 -14 3 -8 -8 7
-11 5 -11 -10 1 -11 9 -16 10 -11 3 6 -12 -18 -19 -47 -14 -5 1 -6 -3 -2 -9 3
-5 -2 -10 -12 -10 -11 0 -24 -5 -31 -12 -9 -9 -12 -9 -12 3 0 12 -2 12 -9 0
-5 -7 -19 -14 -32 -15 -13 -1 -23 -7 -22 -12 1 -7 -8 -9 -22 -6 -16 3 -25 0
-25 -8 0 -8 -9 -11 -25 -8 -19 4 -23 2 -15 -7 8 -9 4 -11 -16 -7 -18 3 -25 1
-20 -6 4 -6 -3 -9 -19 -8 -15 2 -22 -1 -18 -7 4 -6 0 -8 -10 -4 -10 3 -17 2
-17 -4 0 -6 -4 -7 -10 -4 -5 3 -10 1 -10 -6 0 -7 -3 -9 -7 -6 -3 4 -12 -1 -20
-11 -9 -10 -11 -11 -7 -2 7 13 5 13 -9 1 -9 -7 -17 -10 -17 -5 0 5 -5 1 -11
-10 -9 -15 -13 -16 -20 -5 -7 11 -9 10 -9 -5 0 -15 -3 -16 -14 -7 -11 9 -15 8
-20 -5 -4 -9 -12 -14 -22 -10 -8 3 -13 2 -10 -3 3 -5 -1 -12 -10 -15 -10 -4
-13 -2 -8 6 4 7 -6 2 -23 -10 -19 -14 -38 -19 -49 -15 -12 4 -15 3 -10 -5 4
-7 -3 -14 -19 -18 -14 -3 -25 -10 -25 -15 0 -5 -9 -9 -21 -9 -15 0 -19 -4 -15
-16 5 -14 4 -15 -9 -4 -11 9 -15 9 -15 1 0 -7 -4 -9 -10 -6 -5 3 -10 1 -10 -5
0 -7 -6 -10 -14 -7 -8 3 -17 -1 -20 -9 -3 -8 -15 -14 -26 -14 -11 0 -23 -7
-26 -15 -4 -8 -10 -12 -15 -9 -5 3 -9 0 -9 -6 0 -6 -5 -8 -10 -5 -6 3 -13 0
-16 -9 -3 -9 -12 -12 -21 -9 -10 4 -14 2 -9 -5 6 -10 -30 -28 -47 -24 -5 1 -6
-2 -2 -8 3 -5 -1 -10 -10 -10 -9 0 -27 -12 -41 -27 -19 -21 -23 -23 -19 -7 6
18 6 18 -8 1 -8 -10 -24 -19 -35 -20 -11 0 -19 -4 -16 -8 2 -4 -3 -10 -12 -13
-8 -3 -12 -11 -9 -16 4 -6 3 -9 -2 -8 -4 1 -18 -3 -29 -10 -12 -6 -24 -8 -28
-4 -4 3 -4 -2 0 -12 5 -13 4 -17 -3 -13 -6 4 -18 0 -26 -8 -19 -18 -31 -20
-22 -2 4 6 0 4 -8 -5 -8 -10 -18 -14 -23 -10 -4 4 -2 -2 6 -12 8 -11 10 -17 3
-13 -6 4 -14 3 -18 -3 -4 -6 -10 -8 -15 -5 -4 3 -11 -2 -14 -11 -3 -8 -10 -12
-16 -9 -5 3 -10 1 -10 -5 0 -16 -22 -36 -48 -44 -13 -4 -19 -12 -16 -18 5 -7
1 -9 -9 -5 -9 3 -18 0 -21 -9 -3 -8 -12 -14 -20 -14 -8 0 -17 -9 -21 -20 -3
-11 -12 -19 -18 -17 -7 1 -11 -4 -9 -10 1 -7 -7 -13 -19 -13 -13 0 -18 -4 -13
-12 5 -7 3 -8 -5 -3 -8 4 -18 -1 -27 -14 -8 -12 -21 -21 -29 -21 -8 0 -17 -5
-21 -12 -4 -7 -3 -8 4 -4 7 4 12 3 12 -3 0 -6 -12 -14 -26 -17 -19 -5 -22 -9
-12 -15 10 -7 9 -9 -4 -9 -9 0 -27 -9 -40 -20 -12 -11 -32 -27 -43 -36 -11 -8
-14 -12 -6 -8 9 5 12 3 7 -4 -4 -7 -14 -12 -22 -12 -8 0 -13 -3 -11 -7 3 -5
-1 -14 -9 -21 -11 -10 -14 -10 -15 0 0 7 -4 3 -10 -10 -5 -13 -13 -21 -18 -17
-5 3 -12 -4 -16 -15 -3 -11 -11 -20 -16 -20 -6 0 -7 -5 -3 -12 4 -7 3 -8 -5
-4 -6 4 -14 0 -17 -8 -3 -9 -13 -16 -21 -16 -8 0 -12 -4 -9 -8 3 -5 -8 -19
-25 -32 -16 -14 -29 -29 -29 -33 0 -16 -30 -38 -41 -31 -8 4 -9 3 -5 -5 4 -6
0 -14 -8 -17 -9 -3 -14 -10 -11 -14 3 -5 -4 -11 -15 -15 -11 -3 -19 -12 -17
-18 1 -7 -3 -11 -10 -10 -8 2 -10 -4 -6 -14 4 -10 2 -14 -4 -10 -5 4 -15 -5
-21 -18 -7 -14 -16 -25 -22 -25 -5 0 -10 -7 -10 -16 0 -9 -5 -12 -12 -8 -8 5
-9 2 -4 -12 4 -10 4 -15 0 -12 -3 4 -26 -14 -51 -40 -25 -26 -40 -48 -33 -50
7 -3 2 -9 -11 -16 -12 -6 -29 -22 -38 -36 -11 -16 -12 -21 -3 -16 11 7 11 4 1
-13 -10 -14 -15 -17 -21 -8 -5 8 -8 6 -8 -6 0 -10 -7 -20 -15 -23 -8 -4 -12
-10 -9 -15 3 -5 0 -9 -5 -9 -6 0 -11 -7 -11 -15 0 -8 -5 -15 -11 -15 -6 0 -8
-7 -5 -16 3 -8 2 -12 -4 -9 -6 3 -10 1 -10 -5 0 -6 -5 -8 -12 -4 -6 4 -8 3 -5
-3 4 -6 -2 -18 -13 -28 -11 -10 -20 -24 -20 -32 0 -7 -5 -13 -11 -13 -6 0 -8
-7 -5 -16 3 -8 2 -13 -3 -10 -5 3 -15 -2 -22 -11 -12 -14 -12 -16 1 -8 8 4 5
-2 -7 -14 -25 -24 -30 -36 -10 -26 6 4 1 -3 -13 -15 -14 -12 -19 -19 -13 -15
9 4 11 1 7 -9 -3 -9 -10 -13 -15 -10 -5 3 -9 -2 -9 -11 0 -8 -7 -18 -16 -22
-13 -5 -13 -7 -2 -14 10 -7 8 -9 -6 -9 -16 0 -17 -2 -5 -17 10 -11 10 -14 2
-9 -8 4 -13 2 -13 -4 0 -6 -4 -9 -9 -6 -5 3 -12 -1 -15 -10 -4 -10 -2 -13 7
-9 6 4 4 0 -5 -8 -10 -8 -15 -17 -11 -20 3 -4 1 -7 -5 -7 -7 0 -12 -7 -12 -15
0 -8 -5 -15 -11 -15 -6 0 -9 -6 -6 -14 3 -8 2 -16 -3 -18 -5 -2 -10 -10 -12
-18 -2 -8 -10 -21 -18 -28 -9 -8 -10 -11 -2 -7 11 6 11 3 0 -16 -15 -28 -29
-39 -39 -33 -4 2 -5 -4 -2 -15 3 -11 -2 -21 -11 -24 -9 -4 -13 -13 -10 -22 4
-8 1 -15 -7 -15 -7 0 -9 -3 -6 -7 4 -3 -1 -12 -11 -20 -16 -14 -16 -14 3 -9
17 5 18 4 4 -6 -21 -18 -31 -48 -16 -49 7 0 1 -5 -13 -11 -15 -6 -20 -12 -12
-15 6 -3 12 -10 12 -15 0 -6 -3 -9 -6 -5 -9 8 -34 -18 -34 -35 0 -8 -6 -20
-13 -27 -10 -11 -9 -13 3 -7 8 4 6 0 -4 -8 -11 -9 -16 -16 -12 -16 5 0 3 -6
-3 -13 -6 -8 -8 -17 -4 -20 3 -4 1 -7 -6 -7 -7 0 -10 -4 -6 -9 3 -5 0 -13 -6
-17 -8 -4 -7 -9 2 -15 10 -6 8 -9 -9 -9 -16 0 -21 -4 -16 -12 12 -19 12 -48 1
-55 -6 -4 -7 -1 -2 8 6 10 5 11 -3 4 -6 -5 -13 -23 -16 -38 -3 -16 -10 -35
-17 -43 -6 -8 -8 -14 -5 -14 4 0 0 -7 -8 -16 -9 -8 -16 -29 -16 -45 0 -17 -4
-28 -9 -25 -5 3 -8 -9 -7 -28 1 -19 -3 -34 -9 -33 -5 1 -9 -4 -7 -12 2 -8 -3
-18 -10 -22 -11 -7 -10 -9 1 -9 10 0 10 -6 -4 -26 -11 -18 -12 -24 -4 -18 11
6 12 5 2 -8 -7 -8 -10 -18 -6 -21 3 -4 1 -7 -5 -7 -6 0 -9 -9 -7 -20 2 -11 -1
-20 -6 -20 -6 0 -8 -4 -5 -9 4 -5 0 -12 -6 -14 -9 -4 -9 -6 1 -6 11 -1 10 -5
-5 -17 -10 -8 -13 -12 -5 -9 9 5 8 -1 -4 -19 -10 -14 -14 -26 -11 -26 4 0 2
-9 -4 -19 -6 -13 -7 -22 0 -26 6 -4 5 -13 -2 -25 -7 -10 -16 -16 -21 -13 -5 3
-4 -4 2 -16 9 -16 9 -21 0 -21 -8 0 -7 -5 2 -17 10 -11 10 -14 2 -9 -8 4 -13
1 -13 -8 0 -24 -1 -30 -11 -48 -7 -13 -6 -18 3 -18 9 0 9 -3 -2 -10 -13 -9
-13 -10 0 -10 12 0 13 -2 1 -9 -8 -5 -12 -19 -9 -35 3 -14 2 -23 -3 -21 -4 3
-10 1 -14 -5 -3 -5 -1 -10 6 -10 8 0 9 -4 0 -13 -8 -10 -7 -17 2 -27 9 -10 9
-11 -1 -6 -8 5 -12 -2 -12 -26 0 -19 -6 -40 -12 -46 -10 -10 -10 -15 1 -21 11
-7 11 -9 0 -14 -11 -4 -11 -6 -1 -6 9 -1 10 -6 3 -20 -6 -10 -7 -21 -4 -25 3
-3 0 -6 -7 -6 -9 0 -7 -5 6 -16 10 -8 13 -12 5 -8 -11 5 -13 0 -9 -24 2 -17 1
-29 -3 -26 -4 2 -10 0 -14 -6 -3 -5 -1 -10 6 -10 8 0 8 -4 -1 -15 -10 -12 -10
-15 1 -15 11 -1 10 -3 -2 -10 -9 -5 -14 -21 -13 -39 1 -17 -2 -31 -7 -31 -4 0
-5 -7 -2 -17 4 -10 2 -14 -5 -9 -22 13 -22 -13 0 -30 15 -10 17 -14 6 -11 -15
5 -16 2 -7 -20 7 -20 6 -28 -3 -35 -11 -6 -11 -8 0 -8 7 0 10 -5 7 -10 -4 -6
-1 -18 7 -27 9 -12 9 -15 1 -9 -17 9 -17 -6 0 -23 9 -10 9 -12 0 -7 -9 5 -12
-6 -11 -38 0 -31 4 -43 12 -39 6 4 5 -1 -3 -10 -8 -10 -11 -27 -7 -43 5 -19 4
-24 -6 -18 -10 6 -11 5 -1 -7 10 -12 10 -18 0 -29 -9 -10 -9 -11 1 -6 7 5 12
1 12 -9 0 -10 -5 -14 -13 -9 -9 6 -9 4 1 -7 6 -7 12 -17 12 -22 0 -4 -6 -5
-12 0 -7 4 -5 -6 6 -21 10 -16 12 -25 5 -21 -9 6 -11 2 -7 -13 4 -12 2 -25 -3
-28 -5 -3 -6 -10 -3 -16 13 -20 13 -68 0 -61 -6 4 -3 -6 8 -21 10 -16 13 -25
7 -22 -6 4 -11 3 -11 -3 0 -5 6 -12 13 -14 9 -4 8 -6 -2 -6 -11 -1 -11 -4 -1
-16 7 -8 10 -22 6 -30 -3 -8 -2 -15 2 -15 5 0 7 -16 6 -35 -2 -24 0 -33 8 -29
7 4 8 3 4 -4 -13 -21 -12 -93 1 -104 9 -7 10 -15 2 -29 -7 -15 -6 -19 6 -19 8
0 15 -5 15 -11 0 -5 -4 -8 -8 -5 -11 7 -10 -38 2 -46 6 -4 5 -12 -3 -22 -10
-12 -11 -16 -1 -16 7 0 10 -8 7 -20 -3 -10 1 -25 9 -31 11 -9 11 -15 3 -25 -9
-11 -8 -14 2 -14 11 0 11 -2 -1 -10 -11 -7 -11 -10 -2 -10 7 0 10 -4 7 -10 -3
-5 0 -10 7 -10 9 0 9 -3 -2 -10 -14 -9 -7 -15 15 -10 6 1 4 -4 -2 -11 -16 -16
-17 -33 -2 -23 8 5 8 1 0 -13 -8 -15 -6 -26 6 -43 10 -14 11 -20 4 -15 -11 6
-11 3 0 -16 7 -13 14 -46 15 -73 2 -27 9 -53 16 -58 7 -4 9 -8 4 -8 -5 0 -3
-7 4 -15 9 -11 9 -15 1 -15 -7 0 -9 -5 -6 -10 4 -6 10 -8 14 -6 4 3 8 -7 9
-22 4 -49 10 -67 19 -65 5 1 7 -11 5 -28 -3 -19 0 -29 8 -29 7 0 10 -8 7 -20
-3 -11 -2 -20 3 -20 4 0 11 -7 14 -16 6 -14 4 -15 -9 -4 -14 12 -15 11 -4 -13
7 -15 17 -23 23 -20 6 4 5 -1 -3 -10 -8 -11 -9 -17 -3 -17 6 0 9 -6 6 -14 -3
-8 -1 -17 5 -21 6 -3 11 -15 11 -26 0 -10 5 -19 11 -19 5 0 8 -4 4 -9 -3 -5 2
-17 11 -25 8 -9 12 -16 8 -16 -5 0 -3 -5 3 -11 6 -6 9 -18 6 -25 -3 -8 0 -14
6 -14 6 0 11 -11 11 -25 0 -14 5 -25 11 -25 5 0 8 -4 4 -9 -8 -15 16 -61 29
-54 6 4 4 -2 -4 -12 -14 -17 -13 -18 3 -12 13 5 16 3 10 -5 -13 -22 -10 -46 4
-41 9 4 11 0 6 -13 -4 -11 -3 -15 5 -10 7 4 10 -1 7 -14 -2 -11 1 -20 6 -20 6
0 8 -4 5 -9 -3 -5 1 -12 10 -15 9 -4 14 -13 10 -21 -3 -9 0 -15 10 -15 8 0 12
-5 9 -11 -4 -5 1 -26 10 -46 10 -19 18 -41 20 -47 6 -28 18 -45 28 -39 5 3 7
1 3 -5 -3 -6 1 -17 9 -25 11 -12 12 -17 2 -20 -7 -3 -5 -6 6 -6 9 -1 17 -8 17
-17 0 -9 8 -23 18 -31 11 -10 12 -12 2 -8 -10 4 -9 2 2 -8 10 -8 18 -22 18
-31 0 -9 5 -16 11 -16 6 0 8 -7 5 -16 -4 -10 -2 -13 6 -8 8 5 9 2 5 -10 -4
-10 -3 -15 3 -11 6 3 10 -3 10 -14 0 -12 5 -21 10 -21 6 0 10 -7 10 -15 0 -8
7 -15 15 -15 9 0 12 -6 9 -15 -4 -9 1 -18 11 -21 13 -5 14 -9 3 -15 -10 -7 -9
-9 5 -9 10 0 15 -5 12 -10 -3 -6 1 -13 10 -16 9 -4 14 -13 11 -20 -3 -8 1 -14
9 -14 9 0 12 -8 10 -20 -2 -11 0 -18 5 -15 5 3 11 -4 15 -15 4 -11 11 -18 16
-15 8 6 13 -8 10 -27 0 -5 3 -8 9 -8 5 0 10 -7 10 -16 0 -8 4 -13 8 -10 4 2
14 -9 21 -25 7 -16 17 -27 22 -24 5 4 6 -1 3 -9 -4 -9 0 -18 9 -22 9 -3 14
-11 11 -19 -3 -7 2 -15 10 -18 9 -4 16 -14 16 -24 0 -15 2 -16 10 -3 8 13 10
12 10 -3 0 -11 4 -15 12 -11 6 4 8 3 4 -4 -3 -6 1 -17 9 -25 8 -9 15 -20 15
-26 0 -5 9 -16 20 -24 11 -8 17 -16 14 -20 -3 -3 6 -13 20 -22 14 -10 26 -21
26 -26 0 -10 19 -33 78 -97 23 -25 42 -52 42 -61 0 -14 2 -14 10 -1 8 12 10
11 10 -8 0 -12 5 -21 12 -20 6 2 17 -7 23 -19 7 -13 14 -21 17 -18 3 3 11 -2
19 -12 12 -15 12 -16 -1 -8 -13 8 -13 6 -1 -8 7 -9 17 -14 22 -11 5 3 9 0 9
-6 0 -15 25 -40 41 -40 7 0 10 -3 6 -6 -8 -9 34 -54 51 -54 9 0 13 -3 9 -6 -7
-7 38 -54 51 -54 6 0 13 -7 16 -16 3 -8 11 -12 17 -8 8 4 9 3 5 -4 -4 -7 -2
-12 4 -12 6 0 9 -3 7 -7 -3 -5 1 -14 9 -21 11 -10 14 -10 15 0 0 7 4 3 9 -9 5
-13 14 -23 21 -23 15 0 79 -67 71 -75 -4 -3 1 -3 11 1 10 3 17 1 17 -5 0 -6 5
-11 11 -11 5 0 7 5 3 12 -4 7 -3 8 4 4 7 -4 12 -13 12 -19 0 -19 38 -48 44
-34 2 7 5 2 5 -11 1 -13 5 -20 11 -17 6 3 10 -2 10 -11 0 -10 3 -14 7 -11 3 4
12 -1 20 -11 9 -10 12 -11 7 -2 -6 11 -2 10 13 -3 11 -9 23 -15 26 -12 4 3 5
2 3 -1 -6 -9 29 -41 53 -49 12 -3 19 -11 16 -16 -4 -5 1 -9 10 -9 10 0 13 -5
9 -12 -4 -6 -3 -8 3 -5 9 6 21 -2 71 -43 6 -6 12 -8 12 -4 0 4 8 -3 19 -14 10
-12 21 -19 25 -15 3 3 6 0 6 -7 0 -7 3 -10 6 -7 4 4 18 -6 30 -21 13 -15 24
-21 24 -14 0 7 5 10 10 7 6 -4 7 -12 4 -18 -4 -7 -3 -9 1 -4 5 4 20 -3 34 -15
19 -17 22 -18 11 -4 -15 19 -14 19 13 2 15 -10 27 -22 27 -27 0 -5 6 -8 13 -7
6 2 11 -2 10 -9 -1 -6 4 -14 13 -17 10 -4 13 -1 9 7 -4 6 1 3 10 -8 8 -11 21
-20 28 -21 32 -3 37 -5 37 -18 0 -10 7 -12 22 -8 14 3 19 2 14 -6 -5 -8 1 -12
14 -12 14 0 19 -4 14 -12 -5 -9 -2 -9 9 1 15 12 21 9 18 -12 0 -4 2 -6 6 -6
20 3 34 -2 29 -10 -4 -5 4 -7 16 -3 14 3 19 2 14 -6 -4 -7 -1 -12 9 -12 9 0
13 -4 10 -10 -3 -6 1 -7 9 -4 9 3 16 1 16 -6 0 -6 5 -8 10 -5 6 3 10 1 10 -4
0 -6 5 -11 11 -11 5 0 7 6 3 13 -5 8 -3 8 9 -2 9 -7 15 -17 12 -21 -2 -4 7 -6
20 -4 14 1 28 -3 32 -8 4 -7 1 -8 -7 -3 -8 5 -11 4 -7 -2 4 -6 20 -9 36 -8 18
1 29 -2 28 -9 -1 -6 8 -11 21 -10 12 0 22 -5 22 -13 0 -7 7 -13 16 -13 9 0 12
-5 8 -12 -4 -7 -3 -8 5 -4 6 4 19 2 28 -6 14 -11 16 -11 8 2 -8 13 -7 13 8 1
9 -7 17 -10 17 -7 0 4 7 0 16 -9 9 -9 23 -14 31 -11 7 3 16 -1 20 -10 5 -13 7
-13 14 -2 7 10 9 11 9 0 0 -7 5 -10 10 -7 6 3 10 1 10 -5 0 -6 5 -8 10 -5 6 3
10 1 10 -5 0 -6 4 -9 8 -6 4 2 14 1 22 -4 9 -5 20 -4 29 3 12 9 13 9 7 0 -4
-8 -1 -13 8 -13 9 0 16 -4 16 -10 0 -5 7 -7 15 -4 8 4 15 1 15 -5 0 -9 6 -9
23 0 21 12 21 11 7 -6 -8 -10 -10 -16 -4 -12 7 4 17 0 24 -8 7 -8 18 -15 24
-15 6 0 4 5 -4 10 -9 6 -10 10 -3 10 6 0 15 -4 18 -10 3 -5 15 -10 26 -10 10
0 19 -5 19 -10 0 -7 7 -7 21 1 15 8 19 8 15 0 -7 -11 5 -15 32 -12 6 1 12 -2
12 -6 0 -9 22 -13 68 -13 12 0 22 -4 22 -8 0 -7 24 -12 68 -15 6 0 12 -4 12
-9 0 -4 3 -7 8 -7 29 5 52 -3 52 -18 0 -15 2 -16 10 -3 5 8 10 10 10 4 0 -7
13 -10 30 -8 19 2 30 -1 30 -9 0 -8 4 -7 10 3 9 13 10 13 10 0 0 -13 1 -13 10
0 8 13 10 13 10 -2 0 -12 7 -15 28 -13 15 1 30 -2 34 -9 5 -7 8 -6 8 4 0 10 3
11 8 4 10 -15 66 -29 57 -13 -5 7 1 7 16 -2 31 -16 59 -19 59 -5 0 6 5 4 9 -4
7 -10 25 -15 63 -14 29 0 56 -4 60 -10 4 -6 12 -5 22 3 9 8 16 9 16 3 0 -15
28 -23 36 -10 5 7 2 8 -6 3 -9 -5 -11 -4 -6 4 5 7 12 9 19 3 7 -5 22 -8 35 -7
12 1 22 -2 22 -6 0 -4 9 -5 20 -2 13 3 20 0 20 -8 0 -11 2 -11 10 1 7 11 10
11 10 2 0 -10 5 -10 20 -2 15 8 20 8 20 -1 0 -8 4 -8 15 1 12 10 16 9 21 -4 3
-9 10 -13 15 -10 15 9 80 13 74 5 -2 -4 2 -8 10 -8 8 0 11 5 8 10 -3 5 0 7 8
5 8 -3 23 -1 34 5 17 9 18 8 8 -4 -10 -13 -7 -15 19 -13 17 1 35 8 39 16 5 7
9 8 9 2 0 -6 19 -11 45 -11 29 0 43 4 39 11 -3 6 1 3 9 -6 8 -10 16 -15 19
-12 9 8 79 13 73 5 -2 -4 2 -8 10 -8 8 0 11 5 8 10 -3 5 0 7 8 5 8 -3 23 -1
34 5 17 9 18 8 7 -5 -11 -13 -8 -15 20 -11 18 3 42 5 52 5 11 -1 27 3 36 8 9
5 22 5 29 0 8 -4 27 -4 42 0 19 6 29 5 29 -2 0 -7 4 -7 13 0 16 13 59 18 75 9
7 -5 12 -3 12 3 0 7 8 9 21 5 15 -5 19 -4 15 4 -9 14 16 10 26 -3 4 -6 12 -6
20 1 7 5 28 9 46 8 17 -1 32 3 32 8 0 6 3 7 6 4 4 -3 15 -2 25 4 14 7 19 6 19
-3 0 -9 3 -9 10 2 8 12 10 12 10 1 0 -11 3 -11 15 -1 8 7 22 10 30 6 8 -3 15
-1 15 5 0 6 5 7 10 4 6 -4 17 -1 25 5 12 10 15 10 15 -1 0 -10 3 -10 11 -2 6
6 18 9 25 6 8 -3 14 -1 14 4 0 4 16 8 36 7 27 -2 34 1 30 12 -4 11 -2 13 10 6
21 -12 74 -2 81 15 4 10 9 11 18 3 9 -8 14 -6 19 6 5 14 9 14 23 3 14 -12 16
-12 8 0 -6 11 -3 13 13 9 16 -5 22 -2 22 10 0 14 2 14 9 3 6 -9 10 -10 16 -2
3 7 15 9 26 6 11 -4 19 -2 19 5 0 6 4 9 9 5 5 -3 13 0 17 6 4 8 9 7 15 -2 6
-11 9 -10 15 4 5 14 9 15 20 6 11 -9 14 -8 14 7 0 16 2 17 10 4 9 -13 10 -13
10 0 0 13 1 13 10 0 6 -10 10 -11 10 -2 0 6 9 12 20 12 11 0 20 6 20 13 0 8 3
7 10 -3 8 -12 10 -12 16 3 5 15 9 15 22 5 12 -10 14 -10 8 -1 -4 8 -2 13 4 13
6 0 9 4 6 8 -3 5 7 8 22 7 15 -1 30 2 33 7 6 9 41 19 72 21 9 1 17 5 17 9 0 4
3 7 8 6 16 -3 41 15 35 26 -4 8 -2 8 7 -1 14 -13 43 -6 34 8 -3 5 2 6 11 3 8
-4 21 -1 29 5 7 6 17 7 21 3 5 -4 5 -2 2 4 -9 15 19 39 28 25 4 -7 12 -7 25 1
10 7 16 17 12 23 -3 5 1 4 10 -3 11 -9 18 -10 23 -2 3 6 12 7 18 3 9 -5 9 -3
0 8 -9 11 -7 14 14 15 13 1 31 10 38 20 13 17 16 17 25 4 7 -11 10 -11 10 -2
0 7 4 11 9 8 4 -3 16 3 26 14 10 11 22 20 27 20 20 0 98 41 98 52 0 6 3 9 6 5
3 -3 21 3 40 13 19 11 41 17 51 13 16 -6 17 -5 3 12 -14 17 -13 18 3 12 9 -3
17 -2 17 4 0 5 8 12 18 16 9 3 28 15 41 27 13 12 20 14 16 6 -8 -13 -7 -13 8
-1 9 7 17 11 17 7 0 -3 12 4 26 17 14 12 28 20 31 19 3 -2 9 2 14 10 5 7 14
13 21 13 7 1 12 6 11 13 -2 6 3 9 11 6 7 -3 16 2 20 11 3 9 10 13 16 10 5 -3
10 -1 10 5 0 6 5 8 13 4 7 -5 6 0 -3 11 -9 12 -10 16 -2 11 13 -8 72 14 72 27
0 5 5 5 10 2 6 -3 10 0 10 7 0 7 9 19 21 26 17 11 20 11 14 0 -3 -7 0 -5 8 5
8 9 20 17 26 17 7 0 10 4 6 9 -7 12 29 33 40 23 5 -4 5 -2 2 4 -4 7 8 19 29
29 19 9 38 23 41 31 3 8 12 13 19 10 9 -3 11 0 7 11 -5 13 -2 15 11 10 9 -4
15 -3 12 2 -6 9 22 37 33 35 3 -1 5 3 3 8 -2 6 5 8 15 4 9 -4 14 -4 10 0 -7 7
30 44 45 44 5 0 6 5 3 10 -3 6 1 10 10 10 9 0 13 5 10 10 -3 6 1 10 9 10 9 0
16 7 16 16 0 14 3 14 16 4 12 -11 15 -11 12 1 -2 8 3 13 11 11 12 -3 12 0 1
13 -11 13 -10 15 4 9 12 -5 19 0 23 16 4 16 8 18 14 8 7 -10 9 -9 9 5 0 9 4
16 8 15 10 -4 72 59 72 72 0 5 8 7 18 3 9 -3 14 -3 11 1 -8 9 34 56 49 56 6 0
9 7 5 15 -3 9 -2 15 3 13 16 -5 66 50 58 63 -4 8 -3 9 5 5 15 -10 43 13 37 30
-3 8 -2 13 2 13 16 -3 35 1 30 6 -3 3 6 18 21 33 14 15 32 37 39 47 7 11 10
14 6 6 -5 -10 -3 -12 5 -7 7 5 10 14 7 22 -3 8 1 14 9 14 8 0 15 7 15 16 0 9
5 12 12 8 8 -5 9 -2 5 10 -4 9 -3 15 1 13 4 -2 21 11 39 29 19 20 27 35 20 38
-7 2 -4 5 6 5 10 1 15 6 12 11 -3 6 1 10 10 10 9 0 13 5 10 10 -3 6 1 13 9 16
9 3 13 10 10 15 -3 5 8 21 25 35 17 14 31 34 31 44 0 10 8 24 18 31 16 13 16
13 2 -6 -14 -18 -14 -19 2 -7 10 8 14 20 11 29 -5 12 -3 14 7 8 8 -5 11 -3 8
6 -2 7 3 20 13 29 10 8 19 22 21 30 2 8 13 25 25 36 12 12 20 24 17 27 -3 2 6
12 20 20 18 12 23 22 19 38 -5 19 -3 21 13 15 10 -4 15 -4 11 0 -4 4 -1 14 6
22 10 13 9 14 -1 8 -11 -7 -11 -4 -1 12 7 12 17 19 21 16 4 -3 5 3 1 12 -4 10
0 21 9 28 8 6 22 26 32 44 9 17 21 32 27 32 6 0 8 4 5 9 -3 5 1 12 10 15 13 5
14 9 4 21 -10 12 -9 15 3 15 11 0 14 5 10 17 -4 11 -3 14 5 9 7 -4 12 -2 12 3
0 23 2 27 23 51 20 22 20 23 2 11 -11 -7 -8 -2 8 12 28 27 36 44 15 31 -7 -4
-5 2 5 13 9 11 14 23 10 26 -3 4 -1 7 6 7 7 0 11 6 8 14 -3 8 1 17 9 20 8 3
14 14 14 25 0 11 5 21 12 23 15 5 19 38 5 38 -7 0 -4 5 6 11 9 6 15 14 12 20
-4 5 -1 9 4 9 6 0 11 9 11 20 0 10 8 24 18 29 13 8 14 11 2 11 -12 0 -11 3 3
11 9 5 17 21 17 35 0 14 4 22 10 19 6 -3 7 1 4 9 -3 9 -1 16 4 16 6 0 9 9 7
20 -2 11 1 20 7 20 6 0 8 9 5 20 -3 13 -1 18 6 13 6 -4 8 0 4 10 -4 10 0 20
11 26 14 8 14 11 2 11 -12 0 -10 4 4 15 14 11 16 15 5 15 -12 0 -12 2 1 10 8
5 11 10 5 10 -5 0 -2 5 8 11 9 6 15 14 12 20 -4 5 -2 9 3 9 6 0 8 10 4 22 -3
14 -1 19 6 14 7 -4 10 1 7 14 -2 11 1 20 7 20 6 0 5 7 -3 17 -8 9 -9 14 -3 10
7 -4 15 0 18 9 9 23 8 26 -6 18 -7 -4 -2 6 9 22 13 17 20 42 19 57 -2 14 0 24
4 22 5 -3 10 2 13 9 3 8 1 17 -6 20 -9 5 -9 7 1 12 6 3 12 19 12 35 0 16 5 29
10 29 6 0 10 5 10 11 0 5 -6 7 -12 3 -14 -9 10 26 27 38 6 5 5 8 -4 8 -10 0
-11 3 -2 13 6 8 8 17 4 20 -3 4 -1 7 6 7 7 0 11 8 9 18 -1 9 1 23 6 31 7 11 6
12 -5 6 -11 -7 -12 -6 -2 7 7 8 10 18 6 21 -3 4 0 7 8 7 11 0 11 2 -1 10 -8 5
-10 10 -4 10 12 0 12 29 1 48 -5 8 -3 10 6 6 14 -5 15 0 18 54 1 15 6 35 11
46 8 14 7 17 -4 10 -10 -6 -10 -4 1 10 9 10 14 34 12 58 -1 30 1 38 11 32 10
-6 10 -4 -1 9 -9 12 -10 21 -3 30 5 6 6 21 2 32 -4 11 -3 28 2 38 5 10 7 26 4
34 -6 14 -4 14 11 2 11 -10 14 -10 9 -1 -4 7 -9 24 -12 38 -3 19 -1 24 8 18
10 -6 10 -5 1 7 -16 20 -17 31 -1 40 10 7 10 9 0 9 -9 0 -10 5 -3 18 7 13 7
22 0 29 -7 7 -6 15 3 24 14 15 18 119 5 119 -5 0 -5 5 -2 10 4 6 12 7 18 4 8
-5 8 -3 0 7 -15 15 -17 53 -3 44 6 -3 7 1 4 9 -3 9 -11 13 -16 10 -6 -4 -5 3
1 15 8 15 9 21 1 21 -6 0 -8 5 -5 10 4 6 11 7 17 4 7 -5 8 -2 2 7 -5 8 -10 36
-11 62 -3 37 -1 47 9 41 10 -6 10 -4 2 7 -16 21 -17 122 -1 113 9 -6 9 -4 1 7
-7 8 -11 35 -10 62 1 26 -2 47 -6 47 -5 0 -8 5 -8 11 0 5 6 7 13 3 8 -6 8 -3
-1 9 -8 9 -11 20 -8 26 3 5 0 11 -6 14 -10 3 -10 7 1 20 11 14 11 17 0 17 -11
0 -11 2 1 10 13 9 13 10 0 10 -13 0 -13 1 0 10 8 5 11 10 5 10 -5 0 -11 23
-11 52 -1 29 -7 54 -13 56 -6 2 -8 9 -4 15 12 19 12 37 1 37 -6 0 -8 6 -5 14
3 7 1 18 -5 24 -6 6 -6 12 3 17 8 6 10 4 4 -5 -5 -9 -4 -11 4 -6 9 6 9 11 1
21 -7 8 -8 20 -4 26 5 9 2 10 -12 6 -18 -7 -18 -7 0 8 11 8 14 15 7 15 -7 0
-9 5 -6 10 3 6 3 16 -2 23 -14 22 -14 49 -1 41 10 -6 11 -4 1 7 -7 7 -13 23
-13 36 0 13 -4 23 -9 23 -5 0 -7 10 -3 22 4 16 2 19 -9 13 -12 -8 -12 -6 0 8
7 9 9 17 4 17 -6 0 -9 14 -7 31 3 20 0 28 -8 23 -7 -5 -8 -3 -3 6 4 7 2 16 -6
22 -11 8 -11 11 -1 15 9 4 10 8 2 18 -6 7 -10 17 -9 21 3 20 -2 35 -10 30 -4
-3 -7 6 -5 19 1 14 -2 23 -7 19 -5 -3 -10 6 -10 20 -2 38 -3 44 -11 52 -5 4
-8 12 -8 18 0 6 5 4 10 -4 7 -10 10 -11 10 -2 0 7 -7 15 -16 19 -13 5 -13 7
-2 14 10 7 11 9 0 9 -7 0 -10 5 -7 10 3 6 1 10 -6 10 -8 0 -8 4 1 15 9 10 9
15 1 15 -6 0 -11 12 -11 26 0 14 -4 23 -8 20 -4 -2 -9 7 -10 22 -5 51 -9 66
-20 70 -6 2 -9 9 -6 16 3 7 -2 18 -10 25 -8 7 -12 20 -9 28 4 11 2 14 -5 9 -7
-4 -12 -3 -12 3 0 5 6 12 13 14 6 3 3 6 -8 6 -17 1 -17 3 -5 11 11 7 11 10 2
10 -7 0 -10 5 -7 10 3 6 1 10 -5 10 -7 0 -10 6 -7 14 3 8 -3 24 -14 37 -21 24
-24 34 -9 24 6 -3 7 1 4 9 -3 9 -10 16 -14 16 -4 0 -11 7 -14 16 -3 8 -2 12 4
9 6 -3 10 -1 10 5 0 6 -7 13 -16 17 -13 5 -13 7 -2 14 10 7 10 9 1 9 -7 0 -13
5 -13 11 0 6 -7 17 -15 26 -8 8 -13 19 -10 24 4 5 1 9 -4 9 -6 0 -10 3 -10 8
4 23 -2 42 -12 37 -6 -4 -10 -1 -8 6 3 27 -1 40 -11 34 -5 -3 -10 -1 -10 4 0
6 6 11 13 12 6 0 3 4 -8 9 -12 5 -14 9 -6 9 11 1 10 5 -5 17 -10 8 -13 13 -6
9 6 -3 12 -1 12 4 0 6 -6 11 -14 11 -8 0 -17 7 -20 16 -6 15 -4 15 11 3 14
-11 13 -9 -2 13 -11 15 -23 28 -27 28 -5 0 -8 8 -8 18 0 10 -8 27 -17 38 -10
10 -20 28 -21 39 -2 11 -8 25 -14 30 -8 7 -8 5 -3 -5 5 -9 4 -12 -1 -7 -12 12
-12 30 1 39 6 5 2 8 -9 8 -13 0 -17 5 -13 20 3 10 2 19 -2 18 -21 -2 -32 4
-28 15 3 7 -4 19 -15 26 -11 7 -17 18 -14 26 2 7 -2 16 -10 19 -8 3 -13 11
-12 18 2 7 -3 12 -9 11 -7 -2 -12 0 -12 5 4 25 -3 42 -18 42 -15 0 -16 2 -3
10 12 8 12 10 -5 10 -17 0 -17 2 -5 10 12 8 12 10 -5 11 -11 0 -14 3 -8 6 10
3 9 8 -2 19 -8 9 -19 12 -25 9 -6 -4 -10 -3 -9 2 4 22 -2 43 -11 38 -5 -3 -10
3 -10 15 0 12 -4 18 -10 15 -5 -3 -10 3 -10 14 0 12 -4 21 -10 21 -5 0 -10 6
-10 13 0 7 -9 23 -20 35 -11 12 -20 26 -20 32 0 5 -4 10 -10 10 -5 0 -10 7
-10 16 0 8 -4 12 -10 9 -5 -3 -10 1 -10 10 0 10 -5 13 -12 9 -8 -5 -9 -2 -5 9
4 12 1 17 -9 17 -11 0 -14 6 -10 16 4 11 -1 18 -14 21 -18 5 -24 15 -21 36 0
4 -6 7 -15 7 -8 0 -12 5 -9 10 3 6 -1 10 -9 10 -8 0 -18 5 -22 12 -5 7 -2 8 7
3 8 -4 0 6 -18 23 -17 16 -29 33 -26 36 4 3 -2 6 -13 6 -15 0 -16 2 -5 9 11 7
9 10 -10 13 -15 2 -29 14 -39 35 -20 42 -72 103 -87 103 -7 0 -12 3 -12 8 3
20 -2 32 -13 29 -7 -1 -12 4 -11 10 2 7 0 12 -5 12 -18 -3 -33 2 -28 9 3 5 -6
16 -20 26 -13 11 -24 23 -24 28 0 5 -13 22 -29 37 -16 16 -27 32 -24 35 4 3
-1 6 -10 6 -9 0 -17 5 -17 11 0 5 -5 7 -10 4 -6 -3 -13 1 -16 9 -3 9 -10 13
-15 10 -5 -3 -9 0 -9 7 0 6 -17 27 -37 45 -34 31 -52 39 -77 35 -5 -1 -3 6 4
16 8 10 11 15 6 11 -5 -4 -21 6 -37 23 -15 16 -30 29 -32 27 -7 -6 -36 30 -29
37 4 4 -4 4 -18 0 -23 -7 -24 -7 -10 10 9 11 10 16 3 11 -8 -4 -13 -2 -13 4 0
6 -4 9 -9 6 -5 -3 -11 1 -15 9 -3 8 -12 15 -21 15 -8 0 -15 7 -15 15 0 8 -9
15 -21 15 -12 0 -18 4 -13 11 4 7 1 10 -6 7 -8 -2 -28 11 -46 30 -18 19 -37
31 -43 28 -6 -4 -11 0 -11 8 0 9 -7 16 -16 16 -9 0 -12 5 -8 12 4 6 3 8 -3 5
-6 -4 -21 2 -34 14 -12 11 -28 17 -35 15 -7 -3 -16 4 -19 15 -6 18 -17 24 -38
20 -5 -1 -11 7 -14 18 -3 11 -12 22 -20 26 -14 5 -14 3 -2 -12 7 -10 0 -7 -16
7 -17 14 -32 29 -33 33 -2 4 -11 2 -20 -5 -12 -10 -14 -10 -8 0 4 7 2 12 -4
12 -6 0 -8 5 -4 11 4 7 1 10 -7 7 -8 -3 -20 1 -27 9 -8 7 -18 11 -23 8 -5 -4
-9 -1 -9 5 0 6 -5 8 -10 5 -6 -4 -9 -1 -8 7 2 7 -3 12 -9 10 -7 -1 -13 2 -13
8 0 5 -7 10 -16 10 -8 0 -12 5 -9 10 3 6 -3 10 -15 10 -12 0 -28 7 -36 15 -8
8 -22 11 -32 8 -9 -3 -14 -2 -9 2 8 10 -63 46 -75 39 -5 -3 -8 2 -8 11 0 9 -4
13 -10 10 -5 -3 -10 -1 -10 4 0 6 -9 11 -20 11 -11 0 -20 5 -20 11 0 5 -4 7
-10 4 -5 -3 -10 -1 -10 5 0 6 -4 8 -10 5 -5 -3 -10 -1 -10 5 0 6 -4 9 -9 5 -5
-3 -12 -1 -16 5 -4 6 -10 8 -15 5 -5 -3 -11 -1 -15 5 -3 5 -15 10 -26 10 -13
0 -18 4 -13 12 4 6 3 8 -4 4 -6 -3 -13 -2 -16 3 -3 5 -15 7 -26 4 -14 -4 -20
0 -20 13 0 9 -3 14 -7 11 -3 -4 -13 -1 -21 6 -13 10 -14 9 -7 -3 7 -12 6 -13
-7 -3 -8 7 -19 9 -23 5 -5 -4 -5 -2 -2 4 4 7 -1 18 -10 25 -12 10 -14 10 -9 2
10 -18 -4 -16 -26 4 -12 11 -18 12 -18 4 0 -8 -5 -7 -16 3 -8 9 -20 14 -25 11
-5 -4 -9 -1 -9 4 0 6 -9 11 -20 11 -11 0 -20 6 -20 13 0 8 -4 7 -10 -3 -7 -11
-10 -11 -10 -2 0 7 -4 10 -10 7 -5 -3 -10 -1 -10 5 0 7 -7 10 -15 6 -8 -3 -15
-1 -15 5 0 6 -7 9 -15 5 -8 -3 -15 -1 -15 4 0 5 -7 7 -15 3 -9 -3 -24 2 -35
12 -10 9 -24 14 -29 10 -6 -3 -14 0 -17 9 -3 8 -12 12 -21 9 -8 -3 -19 0 -24
8 -7 12 -9 12 -9 -1 0 -12 -2 -12 -9 -2 -4 7 -14 14 -22 15 -8 2 -20 7 -28 11
-10 6 -12 5 -7 -3 8 -12 -37 4 -62 23 -9 7 -16 6 -22 -3 -5 -9 -10 -10 -14 -3
-4 6 -16 9 -27 7 -17 -3 -19 -1 -9 10 8 10 8 13 -2 11 -7 -1 -19 -5 -25 -9 -8
-5 -13 -4 -13 2 0 6 -13 11 -30 11 -16 0 -30 5 -30 11 0 5 -4 8 -8 5 -5 -3
-19 0 -33 7 -28 14 -49 15 -66 4 -8 -5 -13 -3 -13 4 0 8 -4 8 -15 -1 -11 -9
-15 -9 -15 -1 0 9 -5 9 -20 1 -14 -7 -20 -7 -20 0 0 5 -5 10 -11 10 -5 0 -8
-4 -5 -8 3 -5 -1 -9 -9 -9 -8 0 -15 4 -15 9 0 5 -9 6 -21 3 -15 -5 -22 -2 -25
12 -4 14 -13 19 -35 18 -16 -1 -29 2 -29 8 0 5 -6 7 -14 4 -7 -3 -19 0 -25 6
-8 8 -11 7 -11 -3 0 -13 -2 -13 -10 0 -7 11 -10 11 -10 2 0 -8 -5 -10 -12 -5
-7 4 -21 6 -32 4 -12 -2 -16 1 -11 9 6 9 2 9 -15 0 -13 -7 -20 -8 -16 -2 4 7
-8 10 -34 8 -22 -2 -40 0 -40 4 0 4 -31 6 -70 5 -38 -1 -70 2 -70 7 0 4 -5 8
-11 8 -5 0 -7 -4 -4 -10 3 -6 -1 -7 -9 -4 -9 3 -13 11 -9 18 4 7 2 7 -8 -1
-12 -10 -18 -10 -29 0 -10 9 -11 9 -6 -1 6 -10 1 -11 -18 -6 -16 4 -33 1 -43
-7 -9 -8 -14 -9 -10 -3 4 8 -8 12 -39 12 -32 1 -43 -2 -37 -11 5 -9 3 -9 -8
-1 -8 5 -29 11 -48 13 -25 2 -31 0 -26 -11 6 -10 5 -11 -6 0 -7 6 -17 12 -22
12 -4 0 -5 -6 -1 -12 6 -9 3 -9 -9 0 -9 8 -20 11 -26 8 -5 -3 -12 0 -14 6 -3
7 -6 9 -7 3z m-3463 -1770 c0 -8 -4 -12 -9 -9 -5 3 -6 10 -3 15 9 13 12 11 12
-6z m6953 -5699 c0 -2 -8 -10 -17 -17 -16 -13 -17 -12 -4 4 13 16 21 21 21 13z"/>
<path d="M8790 8361 c0 -6 4 -13 10 -16 6 -3 7 1 4 9 -7 18 -14 21 -14 7z"/>
<path d="M7385 1360 c-3 -6 1 -7 9 -4 18 7 21 14 7 14 -6 0 -13 -4 -16 -10z"/>
</g>
</svg>
